<svg xmlns="http://www.w3.org/2000/svg" viewBox="0 0 394.15 76.54"><g id="Layer_2" data-name="Layer 2"><g id="Layer_1-2" data-name="Layer 1"><path d="M242.29,4.76a.84.84,0,0,0,1.06.52c1-.36,2.1-.69,3.15-1a.83.83,0,0,0,.42-.28.81.81,0,0,0,.15-.75.84.84,0,0,0-1-.58c-1.08.31-2.16.65-3.23,1A.84.84,0,0,0,242.29,4.76Zm30.91-3a.78.78,0,0,0,.17-.42.84.84,0,0,0-.74-.93c-2.21-.24-4.47-.37-6.7-.4a.83.83,0,0,0-.84.83.83.83,0,0,0,.82.84c2.18,0,4.38.16,6.54.39A.82.82,0,0,0,273.2,1.75Zm6.06-.29a.83.83,0,1,0-.34,1.63c2.13.45,4.26,1,6.34,1.66a.83.83,0,0,0,.9-.27.87.87,0,0,0,.14-.27.83.83,0,0,0-.54-1C283.63,2.49,281.44,1.92,279.26,1.46Zm12.79,4A.83.83,0,0,0,291.4,7c2,.86,4,1.82,5.88,2.87a.84.84,0,0,0,1.06-.22,1,1,0,0,0,.08-.11.85.85,0,0,0-.33-1.14C296.13,7.35,294.1,6.36,292.05,5.49ZM309.16,16c-.41-.34-.82-.68-1.24-1-1.33-1.06-2.71-2.08-4.11-3a.84.84,0,0,0-1.16.22.83.83,0,0,0,.22,1.16c1.36.94,2.71,1.93,4,3,.41.32.81.65,1.21,1a.84.84,0,0,0,1.18-.1v0A.84.84,0,0,0,309.16,16Zm3.75,5.72c1.53,1.55,3,3.19,4.37,4.88a.83.83,0,0,0,1.17.13.8.8,0,0,0,.13-.13.84.84,0,0,0,0-1c-1.41-1.73-2.91-3.41-4.48-5a.83.83,0,0,0-1.18,0A.84.84,0,0,0,312.91,21.7ZM259.37,1.91A.84.84,0,0,0,260,1.6a.82.82,0,0,0,.18-.59.84.84,0,0,0-.91-.76c-2.22.19-4.45.49-6.65.9a.84.84,0,0,0-.67,1,.85.85,0,0,0,1,.67C255,2.39,257.2,2.1,259.37,1.91Zm61.79,30c.6.91,1.19,1.86,1.74,2.8a.85.85,0,0,0,1.15.3.87.87,0,0,0,.23-.2.83.83,0,0,0,.06-.94c-.57-1-1.17-1.94-1.78-2.88a.84.84,0,0,0-1.16-.23A.83.83,0,0,0,321.16,31.89Zm48,38.24A67.39,67.39,0,0,1,362.82,76a3,3,0,0,1-3.56,0,67.39,67.39,0,0,1-6.32-5.83c-1.34-1.39-2.62-2.84-3.85-4.32a.82.82,0,0,1-.26.1l-3.11.59-.14,1.72A1.87,1.87,0,0,1,343.81,70l-9.59.49h0a.82.82,0,0,1-.65-.32.81.81,0,0,1-.15-.75L335.85,61a3.73,3.73,0,0,1,.93-1.58l.41-.4,4.26-4.27A65.5,65.5,0,0,1,336.51,44a61.23,61.23,0,0,1-2.45-9.27,58.67,58.67,0,0,1-.93-10.25,1.91,1.91,0,0,1,.65-1.41,2.76,2.76,0,0,1,1.39-.65,85,85,0,0,0,11.07-2.79c5.76-1.88,10.3-4,13.48-6.43a2.35,2.35,0,0,1,2.64,0A31.24,31.24,0,0,0,367,16a16.46,16.46,0,0,1,16.93-2.74,16.65,16.65,0,0,1,4.79,3l.34.33s0,0,0,0l0,0A16.48,16.48,0,0,1,386,42.75c-.13.4-.25.8-.39,1.2a68.66,68.66,0,0,1-7.73,15.38A79.12,79.12,0,0,1,369.14,70.13Zm-7.36,4.52A64.56,64.56,0,0,0,367.93,69a76.42,76.42,0,0,0,8.52-10.57,67.4,67.4,0,0,0,7.4-14.61,16.45,16.45,0,0,1-11.92.18l-3.12,5.21a.71.71,0,0,1-.1.14,2,2,0,0,1-1.41.63,2,2,0,0,1-1.43-.58l-.61-.61-1.18,1.38a.94.94,0,0,1-.48.28l-2.24.41-.45,3.29a.85.85,0,0,1-.69.71l-1.87.32-.5,2.2a.84.84,0,0,1-.76.64l-3,.22-.29,2.61a.83.83,0,0,1-.64.73l-3.27.76-.2,1.58c1.42,1.75,2.91,3.45,4.48,5.08a64.29,64.29,0,0,0,6.16,5.68A1.41,1.41,0,0,0,361.78,74.65Zm-17-9.67,3.15-.6.35-2.86a.85.85,0,0,1,.64-.71l3.27-.76.3-2.72a.83.83,0,0,1,.77-.74l3.11-.22.49-2.13a.85.85,0,0,1,.67-.64l1.82-.31.45-3.29a.82.82,0,0,1,.67-.7l2.54-.47L364.58,47a.82.82,0,0,1,.6-.29.81.81,0,0,1,.62.25l1.25,1.25a.28.28,0,0,0,.22.09.27.27,0,0,0,.17-.06l3.42-5.72a.84.84,0,0,1,1-.34,14.8,14.8,0,0,0,20-17.69l-4.83,4.9,1,1.11a.83.83,0,0,1,0,1.16l-4,3.92a2.64,2.64,0,0,1,.25,1.47,2.52,2.52,0,0,1-1,1.72,2.55,2.55,0,0,1-1.58.55,1.72,1.72,0,0,1-.32,0,2.54,2.54,0,0,1-1.72-1,2.57,2.57,0,0,1,3.13-3.91L386.34,31l-1-1.1a.84.84,0,0,1,0-1.16l6-6.05a14.71,14.71,0,0,0-2.83-4.34l-5.73,5.73a3,3,0,0,1-1,4h0a3,3,0,0,1-4.21-.84,3,3,0,0,1,4-4.34l5.69-5.69a14.84,14.84,0,0,0-4.33-2.58l-6.18,6.1a.84.84,0,0,1-1.16,0l-1.1-1-3.38,3.44a2.47,2.47,0,0,1,.24.8,2.51,2.51,0,0,1-.53,1.9,2.54,2.54,0,0,1-1.72,1l-.31,0a2.58,2.58,0,0,1-2.56-2.27,2.58,2.58,0,0,1,2.25-2.88,2.55,2.55,0,0,1,1.47.26l3.92-4A.82.82,0,0,1,375,18l1.12,1,4.95-4.88a14.78,14.78,0,0,0-3.4-.41,15.16,15.16,0,0,0-1.64.09,14.82,14.82,0,0,0-12.23,20,1.21,1.21,0,0,1-.27,1.28L338,60.62a2.07,2.07,0,0,0-.51.87l-1.2,4.06,28.89-28.89a.83.83,0,1,1,1.18,1.18L335.46,68.7l8.27-.42a.21.21,0,0,0,.19-.19l.18-2.35A.83.83,0,0,1,344.77,65Zm-10-40.55a57.39,57.39,0,0,0,.91,10,58.13,58.13,0,0,0,2.38,9,64.16,64.16,0,0,0,4.59,10.15l19.46-19.47A16.42,16.42,0,0,1,365.7,17.2a32.56,32.56,0,0,1-4.35-2.71.54.54,0,0,0-.31-.09.58.58,0,0,0-.32.09,48.54,48.54,0,0,1-14,6.68A86.55,86.55,0,0,1,335.45,24a1,1,0,0,0-.54.23A.3.3,0,0,0,334.8,24.43Zm34.69.41a1,1,0,0,0,.19-.67.89.89,0,0,0-.35-.61.86.86,0,0,0-.56-.19h-.11a.87.87,0,0,0-.6.35h0a.89.89,0,0,0-.19.67.91.91,0,0,0,1,.79A.92.92,0,0,0,369.49,24.84Zm11.73,0a1.38,1.38,0,0,0-1.14-.61,1.43,1.43,0,0,0-.76.23,1.38,1.38,0,0,0-.58.87,1.34,1.34,0,0,0,.21,1,1.37,1.37,0,1,0,2.27-1.52Zm1.13,12.64a.88.88,0,0,0,.34-.61.89.89,0,0,0-.18-.67.92.92,0,0,0-.61-.34h-.11a1,1,0,0,0-.56.19.91.91,0,0,0-.16,1.28.88.88,0,0,0,.61.34A.89.89,0,0,0,382.35,37.44ZM166.12,34.82a4.52,4.52,0,0,1,3-4.23l.33-.1v-.11l-1.66-19a4.5,4.5,0,1,1,4.9-5.13l21,.87a4.49,4.49,0,0,1,8.91,0l20.67-.88a4.5,4.5,0,1,1,5,5.11l-1.39,18.52a4.51,4.51,0,0,1,3.31,4.34c0,.13,0,.26,0,.39a4.51,4.51,0,0,1-3.36,4L228.23,59a4.5,4.5,0,1,1-5,5.05l-20.91-1.18a4.49,4.49,0,0,1-8.76,0L172.51,64.1a4.5,4.5,0,1,1-4.9-5.07l1.77-19.88A4.51,4.51,0,0,1,166.12,34.82ZM165.38,6.9a2.83,2.83,0,1,0,2.83-2.83A2.83,2.83,0,0,0,165.38,6.9Zm32.75,3.66a2.83,2.83,0,1,0-2.83-2.83A2.83,2.83,0,0,0,198.13,10.56Zm-4.37-1.77-21.17-.87a4.25,4.25,0,0,1-.6,1.42l14.57,13.87,4.18,4v-.74a9.7,9.7,0,0,1,.83-4,7.21,7.21,0,0,1,13.26.31,10,10,0,0,1,.69,3.72v.37L209,23.55l15-14.21a4.65,4.65,0,0,1-.6-1.41l-20.83.88a4.5,4.5,0,0,1-8.74,0Zm34,.94a2.83,2.83,0,1,0-2.84-2.83A2.83,2.83,0,0,0,227.72,9.73ZM225.64,31.4a2.83,2.83,0,1,0,2.83,2.83A2.83,2.83,0,0,0,225.64,31.4Zm2.08,34.94a2.83,2.83,0,1,0-2.84-2.83A2.83,2.83,0,0,0,227.72,66.34ZM198,59.08a2.84,2.84,0,1,0,2.83,2.84A2.84,2.84,0,0,0,198,59.08Zm-29.91,1.6a2.83,2.83,0,1,0,2.83,2.83A2.83,2.83,0,0,0,168.05,60.68Zm3-21.38-1.77,19.88a4.67,4.67,0,0,1,1.4.68l16.11-15.28V35.45H175.08A4.5,4.5,0,0,1,171.05,39.3Zm21.36-12.86v1h11.44v-1a7.52,7.52,0,0,0-1-4,5.5,5.5,0,0,0-9.19-.22A7.39,7.39,0,0,0,192.41,26.44Zm-3.95,2.72V44.44h19.35V29.16Zm-16,33.27,21.09-1.15a4.5,4.5,0,0,1,3.66-3.79l.12-11.38h-8.9a1.53,1.53,0,0,1-.64-.14l-15.92,15.1A4.46,4.46,0,0,1,172.42,62.43Zm30-1.19,20.94,1.19a4.35,4.35,0,0,1,.59-1.36l-15.76-15a1.55,1.55,0,0,1-.31,0H199l-.12,11.39A4.52,4.52,0,0,1,202.41,61.24Zm24.16-2.08L225.1,38.69a4.51,4.51,0,0,1-3.79-3.24H209.48v9a1.56,1.56,0,0,1-.07.44l15.68,14.92A4.39,4.39,0,0,1,226.57,59.16Zm-1.4-29.41,1.38-18.5a4.48,4.48,0,0,1-1.46-.7l-14.24,13.5-3.61,3.43h.63a1.62,1.62,0,0,1,1.61,1.61v4.69h11.68A4.5,4.5,0,0,1,224,30,4.16,4.16,0,0,1,225.17,29.75ZM170.62,32a2.84,2.84,0,1,0,2.83,2.83A2.83,2.83,0,0,0,170.62,32Zm.39-2.62.08,1A4.51,4.51,0,0,1,175,33.78h11.79V29.09a1.61,1.61,0,0,1,1.6-1.61h.25l-4-3.82L170.84,10.55a4.29,4.29,0,0,1-1.41.68Z"/><g id="Untitled-1.psd"><path d="M8.74,72.42A5.55,5.55,0,0,1,5.24,71,11.17,11.17,0,0,1,2,66.25C1.42,64.63.77,62.9.26,61.12-.4,58.85.27,57,1.48,55l.08-.13C3.28,52.16,4.91,49.62,6.65,47c1.33-2,2.8-4,4.77-6.55,1.76-2.3,3.56-4.58,5.35-6.86l2.6-3.31c.44-.56.87-1.13,1.33-1.73l.28-.37-.32-.32c-.56-.56-1.11-1.11-1.67-1.65l-2.6-2.51c-1.8-1.74-3.67-3.53-5.45-5.36a4.52,4.52,0,0,1-1.22-3.52,6.58,6.58,0,0,1,2.49-4.64,7.07,7.07,0,0,1,1.67-1.06L14,9.11a23.89,23.89,0,0,1,12,.84,1,1,0,0,1,.24,0c2.57.91,4.39,2.73,6.15,4.49.58.59,1.19,1.19,1.81,1.75,2.85,2.54,5.7,5.17,8.45,7.71,1.72,1.58,3.44,3.17,5.17,4.74,2.87,2.62,5.82,5.25,8.61,7.72.82.73,1.66,1.44,2.5,2.15l1.24,1.05c1.69,1.44,2.38,3.19,1.93,4.93A8.15,8.15,0,0,1,60,48.27a15.17,15.17,0,0,1-4.77,3.37,12.22,12.22,0,0,1-5.07.39H50a23.75,23.75,0,0,1-5-.91,6.42,6.42,0,0,1-2.52-1.59c-1.26-1.19-2.47-2.4-3.75-3.69q-.52-.54-1.08-1.08l-.1.07c-.43.34-.86.67-1.27,1s-.58.48-.86.73c-.44.38-.9.78-1.39,1.15-1.24.92-2.06.92-4.51.4l-1.07,1.06c-1.05,1-2.13,2.09-3.12,3.21-2,2.31-3.8,4.46-5.37,6.57-1.38,1.85-2.69,3.8-4,5.69L14.84,66.3c-.39.58-.77,1.18-1.14,1.77-.56.88-1.13,1.79-1.77,2.66a3.86,3.86,0,0,1-3.19,1.69ZM14.4,10.57a6.67,6.67,0,0,0-1.23.79A5.22,5.22,0,0,0,11.22,15,3,3,0,0,0,12,17.33c1.77,1.81,3.62,3.6,5.42,5.33.87.83,1.75,1.67,2.61,2.51q.84.82,1.68,1.68l.78.78a.75.75,0,0,1,.07,1l-.68.89-1.34,1.75L18,34.56c-1.79,2.27-3.58,4.55-5.34,6.84C10.66,44,9.2,46,7.89,47.88,6.16,50.44,4.54,53,2.82,55.66l-.06.1C1.7,57.54,1.19,58.93,1.7,60.7s1.13,3.43,1.74,5a9.67,9.67,0,0,0,2.77,4.09A3.84,3.84,0,0,0,9,70.9a2.44,2.44,0,0,0,1.68-1.06c.61-.82,1.17-1.71,1.71-2.57.38-.61.77-1.21,1.17-1.81l1.11-1.65c1.28-1.91,2.6-3.88,4-5.76,1.6-2.14,3.38-4.32,5.45-6.67,1-1.16,2.12-2.24,3.19-3.28.46-.45.91-.89,1.35-1.34a.74.74,0,0,1,.69-.2c2.7.59,3,.49,3.69-.05.45-.33.86-.7,1.31-1.08.29-.26.58-.52.89-.77l1.31-1,.62-.47a.75.75,0,0,1,1,.06l1.55,1.56c1.26,1.27,2.46,2.48,3.71,3.65a4.88,4.88,0,0,0,1.89,1.23,22.75,22.75,0,0,0,4.7.86h.17a11,11,0,0,0,4.44-.29,13.94,13.94,0,0,0,4.27-3.05,6.78,6.78,0,0,0,1.76-3,3.47,3.47,0,0,0-1.46-3.42L58,39.69c-.85-.71-1.7-1.43-2.53-2.17-2.79-2.47-5.75-5.11-8.62-7.73L41.69,25c-2.76-2.54-5.6-5.16-8.44-7.69-.65-.58-1.27-1.21-1.87-1.81-1.69-1.69-3.28-3.28-5.48-4.09a.6.6,0,0,1-.22,0A22.4,22.4,0,0,0,14.4,10.57Z"/></g><path d="M154.6,7.38c-1.07-.36-2.15-.7-3.23-1a.83.83,0,0,0-1,.57.8.8,0,0,0,.15.75.83.83,0,0,0,.42.28c1.05.31,2.11.64,3.15,1a.83.83,0,0,0,.54-1.58Z"/><path d="M125,5.75c2.16-.24,4.36-.37,6.54-.4a.82.82,0,0,0,.82-.84.84.84,0,0,0-.84-.83c-2.23,0-4.49.17-6.7.41A.83.83,0,0,0,124,5a.82.82,0,0,0,.17.43A.87.87,0,0,0,125,5.75Z"/><path d="M111.65,6.84a.83.83,0,0,0-.54,1,.83.83,0,0,0,1,.55,62.65,62.65,0,0,1,6.33-1.66.84.84,0,0,0-.34-1.64C116,5.6,113.78,6.17,111.65,6.84Z"/><path d="M99.32,12.11A.83.83,0,0,0,99,13.24l.08.12a.84.84,0,0,0,1.06.21A65.05,65.05,0,0,1,106,10.71a.83.83,0,0,0,.44-1.1.83.83,0,0,0-1.09-.44C103.31,10.05,101.28,11,99.32,12.11Z"/><path d="M88.13,20.83h0a.84.84,0,0,0,1.18.11l1.21-1c1.3-1,2.65-2,4-3a.83.83,0,0,0,.22-1.16.84.84,0,0,0-1.16-.22c-1.4,1-2.78,2-4.11,3-.42.34-.83.67-1.24,1A.83.83,0,0,0,88.13,20.83Z"/><path d="M84.49,24.2a.84.84,0,0,0-1.18,0c-1.57,1.59-3.07,3.27-4.48,5a.83.83,0,0,0,0,1,.53.53,0,0,0,.13.13.83.83,0,0,0,1.17-.12c1.37-1.69,2.84-3.34,4.37-4.89A.84.84,0,0,0,84.49,24.2Z"/><path d="M144.53,6.47a.83.83,0,1,0,.31-1.64c-2.2-.41-4.43-.71-6.65-.9a.84.84,0,0,0-.91.76.85.85,0,0,0,.76.91C140.21,5.78,142.39,6.08,144.53,6.47Z"/><path d="M76,34.42a.84.84,0,0,0-1.16.24c-.61.93-1.21,1.9-1.78,2.87a.83.83,0,0,0,.06.94.87.87,0,0,0,.23.2.84.84,0,0,0,1.15-.29c.55-1,1.14-1.89,1.74-2.8A.84.84,0,0,0,76,34.42Z"/><path d="M37.68,44.5a.71.71,0,0,1-.53-.22c-3.8-3.8-15.86-15.75-15.86-15.75l1.05-1.06s12.07,12,15.87,15.75a.75.75,0,0,1,0,1.06A.74.74,0,0,1,37.68,44.5Z"/><path d="M29.24,48A.83.83,0,0,1,29,48c-.25-.08-1.54-.53-1.76-1.53a1.6,1.6,0,0,1,.63-1.59l5.75-5.21a.75.75,0,1,1,1,1.11L28.9,46a.79.79,0,0,0-.18.21,3.25,3.25,0,0,0,.75.36.77.77,0,0,1,.49,1A.75.75,0,0,1,29.24,48Z"/><path d="M51.4,49.77A16.88,16.88,0,0,1,45,48.66a.64.64,0,0,1-.3-.24c-.59-.81-3.44-4.92-1.53-6.87A4.62,4.62,0,0,1,46,40.12c.17,0,7.75.54,12.22,1.27a2.59,2.59,0,0,1,1.58,1,1.78,1.78,0,0,1,.33,1.36c-.44,2.53-4.29,5.1-6.16,5.85a.49.49,0,0,1-.2,0A21.71,21.71,0,0,1,51.4,49.77Zm-5.67-2.41a18,18,0,0,0,7.74.8c1.65-.69,4.84-2.9,5.15-4.68,0,0,0-.09-.07-.22a1.07,1.07,0,0,0-.6-.38c-4.39-.72-11.87-1.25-12-1.26a3.24,3.24,0,0,0-1.76,1C43.46,43.35,44.64,45.81,45.73,47.36Z"/></g></g></svg>