<svg xmlns="http://www.w3.org/2000/svg" viewBox="0 0 2860.61 2768.22" style=""><defs><style>.cls-1,.cls-2{fill:none;stroke-miterlimit:10;stroke-width:7px;}.cls-1{stroke:#000;}.cls-2{stroke:#ae2025;}</style></defs><g id="Layer_2" data-name="Layer 2"><g id="Emily_LD" data-name="Emily LD"><path class="cls-1 UyqQxZnx_0" d="M1633.57,2280.01L1624.29,2308.39"></path><path class="cls-1 UyqQxZnx_1" d="M1164.51,2182.57L1161.58,2192.47"></path><path class="cls-1 UyqQxZnx_2" d="M1200.08,2157.68L1197.14,2167.24"></path><path class="cls-1 UyqQxZnx_3" d="M1688.4,2122.97L1687.74,2124.85"></path><path class="cls-2 UyqQxZnx_4" d="M676.66,782.74s-22.49,135.93,48,241.2c32.7,38.83,112.42,113.44,143.08,139s152.28,67.45,219.73,30.66c25.55-12.26,41.91-33.72,55.19-47s49.06-53.15,72.56-75.63,63.37-79.72,69.5-102.2,20.44-77.67,29.64-96.07,21.46-60.3,23.51-89.94-1-85.84,0-104.24,5.11-81.76,9.19-97.09-2-195.21-111.4-216.67S1095,342.31,1055.14,342.31s-144.44,5.74-189.41,25.16c-34.75,34.75-45,34.06-66.43,89.25-31.69,21.47-61.32,42.93-75.63,93S689.94,726.53,687.9,750s-9.2,14.31-9.2-11.24S691,600.83,691,578.34s-18.39-74.6-31.68-86.87-35.77-19.42-43.94-19.42-32.71,14.31-38.84,47-11.24,79.71-9.2,105.26,8.18,60.3,14.31,70.52S599,738.8,600,750,635.78,802.16,676.66,782.74Z"></path><path class="cls-2 UyqQxZnx_5" d="M663.08,787.14s-1.31,81.45,0,103.94,3.7,71.2,2.56,78.92a216.54,216.54,0,0,1-6.13,25.89c-1.82,5.9-29.3,82.9-45,100.61-11.36,14.76-16.12,22-16.12,22s-28.55-21.78-44.29-56.55c0,0-9.31-20-12-27.94"></path><path class="cls-2 UyqQxZnx_6" d="M544.82,1042s40.88-41.1,51.55-46.78c18.17-3.86,59.64-10.76,66.39-11.28"></path><path class="cls-2 UyqQxZnx_7" d="M665.94,966.59s-45.49-2.27-92.05,13.86-66.55,34.74-75.86,52.69-7.95,34.06-7.49,50.19,7.49,42-3.86,61.09-17.95,15.9-26.58,26.35-3.86,12.09-4.2,17-5.45,10.73-7.66,12.78-10.73,6.81-16,17.37c0,0-37,0-50.08-.85s-11.25,1-18.06,3.75-121.28,65.4-155.51,112.08c0,0-41.23,12.6-78.36,42.41-18.56,11.75-45,31.34-56.21,46s-18.91,26.23-25.72,39c-6.3,6.3-28.45,31-40.37,46"></path><path class="cls-2 UyqQxZnx_8" d="M1144.21,1145s15.86,18.57,21.65,32.54c25.55-2,108.33-2.73,128.77,1.7s60.64,28.62,79.72,42.59,58.93,58.25,72.22,69.83,55.53,84.15,61.32,96.07,30.32,69.16,33,86.87c8.86,9.88,16.36,11.25,23.17,16s19.76,18,26.23,32,19.42,45.65,24.87,56.89,3.07,24.53,6.47,31,10.56,21.46,12.61,26.23C1650,1631.69,2295.4,1399,2295.4,1399s10.68-5.68,22.26-.91,126.5,45.19,160.34,62.23,60,30.2,64.73,41.1c7.5,5.23,12.72,8.18,17,9.54s7.19,6.84,7.19,6.84a9.72,9.72,0,0,1,6.21,1c3.07,1.7,9.46,4.42,9.46,4.42a55.53,55.53,0,0,1,16.43,2.13c7.93,2.47,30.75,11.33,30.75,11.33s101.78,41.82,123.92,53.23,49.4,23.85,57.74,32.88a7,7,0,0,1,2.5,5.33c-.06,3.35-1,1.54-1.08,2.1s1.48,25.44,1.48,25.44l40,384.7,2.72,14s0,3.3-.74,4.21-5.67,6.18-5.67,6.18-2.9,1.08-4.89-.73c-3.46.28-340.38,79.94-340.38,79.94l3,7s.06,7.84.11,9.43-1.47,8-3.4,12.43-13.57,23.34-18.68,28.67a94.65,94.65,0,0,1-12.27,11.36c-4.65,3.52-14.53,9.54-16.46,11a31.88,31.88,0,0,1-20.56,5.68s-11.47-.45-21.12-3.4-32.13-15.45-38.15-19.2-11.93-4.65-19.19-13.51-.35-33.16,4.42-37.25,9.54-10.1,18.63-12.49,22.82-4.2,32.59-.45c8.8,3.38,31.89,10.9,39,12.52a12,12,0,0,0,1.74.31"></path><path class="cls-2 UyqQxZnx_9" d="M2505.07,2144.15L2452.57,2155.72"></path><path class="cls-2 UyqQxZnx_10" d="M2355.5,2181.7l-22.91,6.09a75.84,75.84,0,0,1-11.18,2.94c-4.09.51-53.15,0-53.15,0a21.66,21.66,0,0,1-5.45-.51c-3.4-.68-33.21-8.35-41-10s-32.7-7.49-47.69-6.3-30.49,9.71-32.88,19.76-.51,23.5,2.73,27.25,7.84,12.27,18.74,15.33c0,0,25.72,7,32.53,10.56s26.23,9.54,30.15,10.39,23.51,4.09,31.17,5.62,29.47,4.6,37.65,5.28,28.44,3.41,31.51,4.26,16.52-1.19,22.65-2.89,7.67-2.9,11.76-6,10.22-9,10.22-9,6.64-5.28,7.49-6.48,13.12-15.48,14.14-18.21,2-12.05,1.23-14"></path><path class="cls-2 UyqQxZnx_11" d="M2142.43,2218.26s-1.69-.16-8.28-.5-33.72-4.77-33.72-4.77-32.59-6.36-44.4,12.83,14.08,35,22.48,38.16,20,9.08,22.71,10.44a95.4,95.4,0,0,0,34.75,8.52c17.83,2.5,27.82,3.41,32.36,4.2s15.33,2.05,22.83,3.07,14.53,2.15,15.9,2.72,6.92,1.59,16.46.91,44.63.46,51,.91,17,1,22.6-1.25,7.27-3.52,10.79-3.75,16.58-1.47,20.55-2.72,22.05-8.82,25.39-19.52"></path><path class="cls-2 UyqQxZnx_12" d="M1691.51,2257.5a292.17,292.17,0,0,0,63.71,19.42c35.77,6.47,134.22,22.49,134.22,22.49L2063.89,2255"></path><path class="cls-2 UyqQxZnx_13" d="M2306.24,1396.25L2347.64,1884.47L1707.86,2063.32"></path><path class="cls-2 UyqQxZnx_14" d="M2850.7,2064.85s-176-39.34-225.58-66.94c-8.69-4.6-54.68-28.1-54.68-28.1s-201.85-65.92-222.8-85.34"></path><path class="cls-2 UyqQxZnx_15" d="M2599.17,1986.67s-64.5,27.08-135.53,45.48c0,0-479.32,129.8-513.56,138.48s-261.12,69.5-261.12,69.5,5.62,42.92,2.55,59.28c3.07,20.44,1,29.63,0,41.39s0,27.59-22.48,41.39-98.12,65.41-116,78.18-26.06,29.13-57.23,35.26-93,33.22-109.87,43.95"></path><path class="cls-2 UyqQxZnx_16" d="M1633,2405.69s12,48.55-3.35,72.06-59.28,52.12-74.1,62.34-17.37,24-48,33.72-77.16,21-88.92,28.11-77.67,30.66-97.09,39.86-30.66,15.33-49,19.93-71,31.17-104.25,38.83-77.16,15.33-138.48,15.85-97.09,12.26-130.31,32.7c-5.82,3.59-15.44,9.2-27.51,16.1"></path><path class="cls-2 UyqQxZnx_17" d="M1689,2240.13c-1.07-9.08-6.14-9.2-13.8-17.06,6.64-5.32,38.84-23.82,50.59-36.09s14.31-35.25-17.89-53.14-58.25,4.09-66.43,9.71-52.12,32.7-52.12,32.7c-8.18,5.62-47,34.24-61.83,39.35s-66.43,30.15-66.43,30.15l-46,20.44c-46,20.44-134.91,78.18-144.11,82.27s-11.29-2.5-17.54-7.83c-5.74-4.9-15.84-26.24-14.31-29.3s16.52-21.12,55.36-40,78.18-55.19,82.27-59.32,4.09-7.62,48.55-31.13,111.91-66.09,126.9-75.63,36.45-33.38,24.18-71.88-56.89-23.5-56.89-23.5c-21.12,1.36-79.71,28.27-106,40.88s-16,15.33-40.54,22.48-105.26,50.42-124,59.28-109,78-134.22,90.59a91.13,91.13,0,0,0-31.69-19.39s.69-6.48,6.48-20.44c17.71-9.2,84.1-62.83,97-75.44,5.7-18.36,28.14-97.86,35.37-123.31,7.44-26.16-34.64-38.36-46.22-26.09s-55.19,49-78.36,57.23-45.65,36.79-49.73,42.92-34.75,27.26-86.53,51.1-64.73,69.5-66.09,80.4-12.95,51.1-23.85,72.22-15.67,30-19.76,70.18-15.67,48.38-73.59,83.12c-216.66,131.5-471.48,53.83-471.48,53.83s-57.92-10.05-66.6-13.12-23-7.15-45.48-3.57-59.79-.51-69-3.07-34.24-4.09-51.1,5.62-34.75,29.13-40.88,39.86-19.93,18.91-31.68,25"></path><path class="cls-2 UyqQxZnx_18" d="M1481.49,2379.12c13.28-3.57,57.23-24,71-29.13,10.73-13.28,81-46,81-46s1.79-4.59.26-19.41,6.3-35.94,6.3-35.94c12.43-12.5,35.09-25.58,35.09-25.58s-25,15-34.24,24.72-120.6,102.2-159.43,131.33c-5.21,3.9-11.14,7.92-17.52,11.94-41.25,26-101,52.45-101,52.45"></path><path class="cls-2 UyqQxZnx_19" d="M1634.28,1636.8L1301.84,1744.77L1303.05,1752.73"></path><path class="cls-2 UyqQxZnx_20" d="M598.42,1118.53s148.75,132.29,414.48,225.3c0,0,41.9-16.36,52.12-14.31s37.81,97.09,37.81,97.09-4.08-42.92,0-55.19,3.07-48-26.57-70.52c7.16-41.9,28.31-117.62,28.31-117.62"></path><path class="cls-2 UyqQxZnx_21" d="M455.9,1187.8S588.76,1378.58,842.22,1491c94-70.52,148.19-120.6,170.68-147.17"></path><path class="cls-2 UyqQxZnx_22" d="M957.4,1406.17l17.68,40.88s86.87,38.84,104.25,74.61,20.85,58.25,25.24,100.15,108.64,121.57,108.64,258.57c0,0,6.14,26.15,23,55.79"></path><path class="cls-2 UyqQxZnx_23" d="M1245.4,1907.46s-55.7-167.09-79.71-259.07c-12.53-48-11-91.79-6.7-122.72,4-28.37,10.27-45.92,10.27-45.92s41.4-99.13,73.59-107.82c0,0,12.94-.62,2.55-11.07s-35.26-12.94-35.26-12.94,25.55-20.45,48,20.44,47,9.19,47,9.19-32.7-50.08-57.23-64.38-82.1-135.59-82.1-135.59"></path><path class="cls-2 UyqQxZnx_24" d="M1159,1525.67s22.54,62.93,48.6,88.48,58.25,68,61.32,94,20.52,57.11,20.52,57.11"></path><path class="cls-2 UyqQxZnx_25" transform="translate(-516.4 522.43) rotate(-19.81)" d="M1221.05,1740.25A17.04,26.38 0,1,1 1255.1299999999999,1740.25A17.04,26.38 0,1,1 1221.05,1740.25"></path><path class="cls-2 UyqQxZnx_26" transform="translate(-268.85 243.43) rotate(-11.92)" d="M1009.99,1409.41A21.53,23.38 0,1,1 1053.05,1409.41A21.53,23.38 0,1,1 1009.99,1409.41"></path><path class="cls-2 UyqQxZnx_27" d="M1102.83,1426.61s11.25,63.88,17.89,76.14-1.53,31.68,0,36.28,47.47,156.67,68.19,190.76"></path><path class="cls-2 UyqQxZnx_28" d="M1210.14,1347.92c-12.06-2.15-64.27-30-64.27-30s-32.93,45.57-44.8,78.31"></path><path class="cls-2 UyqQxZnx_29" d="M39,1470.26s7.75-5.07,15.24,0,14.31,1.07,24.53,0,61.32,4.38,71.54,15.29c5.31,5.66,34.07-58.6,54.51-79.38s90.62-58.94,111.74-66.77,28.61-3.75,37.47-10.56,32.71-12.95,45.65-15,43.61,9.54,61.32-10.22,59.88-39.39,59.88-39.39"></path><path class="cls-2 UyqQxZnx_30" d="M588.76,2264.15C579.57,2072,565.26,1981.56,436.48,1754c-118.11-208.73-286.16-268.44-286.16-268.44"></path><path class="cls-2 UyqQxZnx_31" d="M732.87,2255c-32.71-22.49-80.23-5.62-80.23-5.62s-32.19,21-48.55,14.82-46.5,9.71-46.5,9.71,2.22,45.64-10.73,62.68-11.58,47-12.26,53.82-6.14,34.75-10.22,45,3.4,22.49,3.4,22.49-.11,23.55-10.95,33.57"></path><path class="cls-2 UyqQxZnx_32" d="M557.59,2273.86s-13.45,10.22-46.84,28.61-47,34.07-47,34.07"></path><path class="cls-2 UyqQxZnx_33" d="M1540.93,1474.64s19.08,70.84,25.56,103.56,14.28,61.31,13.27,76.31"></path><path class="cls-2 UyqQxZnx_34" d="M2550,1963.05s18.35-.91,80.7,23.62,225.63,72,225.63,72"></path><path class="cls-2 UyqQxZnx_35" d="M2306.76,1402.44s217.69,108,234,113.08,41.82,7.75,41.82,7.75"></path><path class="cls-2 UyqQxZnx_36" d="M2078.51,2264s-28.61,61-124,115.14-134.91,73.25-211.22,82.78c-25.89,15-64.7,29.89-107.32-1"></path><path class="cls-2 UyqQxZnx_37" d="M1351.61,630.85s34.66-21.34,14.9,29.59c0,0-4.09,15-6.81,30.66s-21.33,40.19-21.33,40.19"></path><path class="cls-2 UyqQxZnx_38" d="M1375.37,389.27s-288.89-124-575-23.16c0,0-81.63,35.42-137.56-15,0,0,422.36-209.86,712.61,38.15,0,0,88.57,51.78,109.7,64.73s62,72.9-47.7,29.3c-12.94,38.83-32,60.63-59.28,88.57-17.71,38.84-23.16,49.74-23.16,49.74s-3.2,15.2-14.89,23.95"></path><path class="cls-2 UyqQxZnx_39" d="M659.43,352.07s-6.28,11.31-29.45,34.48-26.19,89.92-26.19,89.92,9.84-185.31,49.36-243.91S734.91,114,744.45,97.66s46.33-58.6,64-61.32S980.62-26.3,1188.91,22.71c0,0,62.46,53.14,130.59,109S1404,261.18,1404,296.61s6.36,88.11,29.07,126.5"></path><path class="cls-2 UyqQxZnx_40" d="M851.49,623s64.66,62.31,105.91,41.56c11.46-5.76,16-9.31,31.65,1.13,7.49,5,14.31-1.13,5.45-11.35s-9.46-14.31-37.1-15S872.69,632.51,851.49,623Z"></path><path class="cls-2 UyqQxZnx_41" d="M1173.69,687.7s-22.48,15-5.45,15,25.21,14.3,45,21.12,59.28,0,80.4-16c-30-2.39-85.85-15.33-96.07-20.1S1173.69,687.7,1173.69,687.7Z"></path><path class="cls-2 UyqQxZnx_42" d="M906,658.77a33.05,33.05,0,0,1,4.81-24.25"></path><path class="cls-2 UyqQxZnx_43" d="M959.23,639.37A32.44,32.44,0,0,1,960.58,657a33.38,33.38,0,0,1-2.58,7.78"></path><path class="cls-2 UyqQxZnx_44" d="M1202,718.64a33,33,0,0,1,6.55-27.27"></path><path class="cls-2 UyqQxZnx_45" d="M1256.29,702.67a32.51,32.51,0,0,1,.16,13.73,33,33,0,0,1-2.57,7.77"></path><path class="cls-2 UyqQxZnx_46" transform="translate(112.19 1441.27) rotate(-78.7)" d="M920.77,652.23A14.14,12.93 0,1,1 949.05,652.23A14.14,12.93 0,1,1 920.77,652.23"></path><path class="cls-2 UyqQxZnx_47" transform="translate(292.06 1778.6) rotate(-78.7)" d="M1216.3899999999999,711.22A14.14,12.93 0,1,1 1244.67,711.22A14.14,12.93 0,1,1 1216.3899999999999,711.22"></path><path class="cls-2 UyqQxZnx_48" d="M808.5,560.63s55.57-67.8,126.41-33.39c23.82,11.24,51.76,24.53,76.62,30.32s51.79,18.4,35.43,33.73-146.48-27.6-163.52-34.07S834.39,551.43,808.5,560.63Z"></path><path class="cls-2 UyqQxZnx_49" d="M1341.8,623.43c-7.9-22.71-39.79-36.12-56.59-32.94-8,1.53-39.3,5.23-75.07,4.08S1167.22,608,1167.22,608s-8.74,20.21,18.28,22.94,74.27-7.27,104.93,6.59,40.23,17,47.94,14.08"></path><path class="cls-2 UyqQxZnx_50" d="M1121.91,668.76S1109,794,1126,843"></path><path class="cls-2 UyqQxZnx_51" d="M1018.42,818.51s-23.28-11-40.27,13-16.35,55.19,13.63,67.45"></path><path class="cls-2 UyqQxZnx_52" d="M1061.27,895.51s-34.75-15.68-39.52-21.13-32-10.9-15.67,10.57"></path><path class="cls-2 UyqQxZnx_53" d="M1148.48,835.21s20.1,25.89,20.1,41.22-9.54,38.89-38.15,44.68"></path><path class="cls-2 UyqQxZnx_54" d="M1089.55,906.75s20.78-9.2,36.45-11.24,22.82.68,2,11.24"></path><path class="cls-2 UyqQxZnx_55" d="M897.41,965.17s-6.24,1.74,10.68,2.06c3.63.07,8.32.08,14.36,0,34.24-.51,102.71-13.8,115.49-4.6,9.4,6.77,33.21,17.88,46.5,10.22s24.64,3.06,32.76,9.2,39.82,19.41,44.67,30.15"></path><path class="cls-2 UyqQxZnx_56" d="M915.3,967.28s75.11,23.44,97.09,35.2,58.76,8.68,72.05,5.62,65,.12,70.81-3.31"></path><path class="cls-2 UyqQxZnx_57" d="M908.09,967.23s51.45,83.79,127.18,89.92,103.67-32.37,114.24-51.19"></path><path class="cls-2 UyqQxZnx_58" d="M1437.37,483.3s-29.47-52.13-58.59-69.5-83.37-48.74-151-67.81"></path><path class="cls-1 UyqQxZnx_59" d="M1511.81,1814.51c26.09,3.71,17.52,41.34-11.92,36.81C1471.74,1847,1483.39,1810.46,1511.81,1814.51Z"></path><path class="cls-1 UyqQxZnx_60" d="M1435.75,1814.47c23.17,3.3,15.56,36.71-10.58,32.69C1400.17,1843.31,1410.52,1810.88,1435.75,1814.47Z"></path><path class="cls-1 UyqQxZnx_61" d="M1366.47,1811.22c23.18,3.3,15.56,36.71-10.58,32.69C1330.89,1840.06,1341.24,1807.63,1366.47,1811.22Z"></path><path class="cls-1 UyqQxZnx_62" d="M1688.4,2123c23.11-65.51,78.2-221.61,80.52-228,3.32-9.2,15.95-44.32,17.57-53.83s.34-12.91-.42-16.46-3.4-12.08-10.74-32.86-29.36-26.5-49.95-28c-7.2-.54-296.18-20.58-364.43-24.29s-77.94,41.15-77.94,41.15l-108.32,367.6-10.18,34.38"></path><path class="cls-1 UyqQxZnx_63" d="M1786.17,1842.66c3.58-12.94-8.31-41.69-48.07-45.68-4.46-.45-315.59-24.58-365.34-28.06-53.33-3.73-64,36.27-67.57,47.43-2.9,9.09-72.58,235.57-98.37,319.43l-6.74,21.9"></path></g></g><style data-made-with="vivus-instant">.UyqQxZnx_0{stroke-dasharray:30 32;stroke-dashoffset:31;animation:UyqQxZnx_draw 2ms linear 0ms forwards;}.UyqQxZnx_1{stroke-dasharray:11 13;stroke-dashoffset:12;animation:UyqQxZnx_draw 1ms linear 2ms forwards;}.UyqQxZnx_2{stroke-dasharray:11 13;stroke-dashoffset:12;animation:UyqQxZnx_draw 1ms linear 3ms forwards;}.UyqQxZnx_3{stroke-dasharray:2 4;stroke-dashoffset:3;animation:UyqQxZnx_draw 0ms linear 4ms forwards;}.UyqQxZnx_4{stroke-dasharray:3195 3197;stroke-dashoffset:3196;animation:UyqQxZnx_draw 272ms linear 4ms forwards;}.UyqQxZnx_5{stroke-dasharray:451 453;stroke-dashoffset:452;animation:UyqQxZnx_draw 38ms linear 277ms forwards;}.UyqQxZnx_6{stroke-dasharray:138 140;stroke-dashoffset:139;animation:UyqQxZnx_draw 11ms linear 315ms forwards;}.UyqQxZnx_7{stroke-dasharray:930 932;stroke-dashoffset:931;animation:UyqQxZnx_draw 79ms linear 327ms forwards;}.UyqQxZnx_8{stroke-dasharray:3184 3186;stroke-dashoffset:3185;animation:UyqQxZnx_draw 271ms linear 407ms forwards;}.UyqQxZnx_9{stroke-dasharray:54 56;stroke-dashoffset:55;animation:UyqQxZnx_draw 4ms linear 678ms forwards;}.UyqQxZnx_10{stroke-dasharray:543 545;stroke-dashoffset:544;animation:UyqQxZnx_draw 46ms linear 683ms forwards;}.UyqQxZnx_11{stroke-dasharray:431 433;stroke-dashoffset:432;animation:UyqQxZnx_draw 36ms linear 729ms forwards;}.UyqQxZnx_12{stroke-dasharray:383 385;stroke-dashoffset:384;animation:UyqQxZnx_draw 32ms linear 766ms forwards;}.UyqQxZnx_13{stroke-dasharray:1155 1157;stroke-dashoffset:1156;animation:UyqQxZnx_draw 98ms linear 799ms forwards;}.UyqQxZnx_14{stroke-dasharray:537 539;stroke-dashoffset:538;animation:UyqQxZnx_draw 45ms linear 897ms forwards;}.UyqQxZnx_15{stroke-dasharray:1423 1425;stroke-dashoffset:1424;animation:UyqQxZnx_draw 121ms linear 943ms forwards;}.UyqQxZnx_16{stroke-dasharray:902 904;stroke-dashoffset:903;animation:UyqQxZnx_draw 76ms linear 1065ms forwards;}.UyqQxZnx_17{stroke-dasharray:3528 3530;stroke-dashoffset:3529;animation:UyqQxZnx_draw 300ms linear 1142ms forwards;}.UyqQxZnx_18{stroke-dasharray:655 657;stroke-dashoffset:656;animation:UyqQxZnx_draw 55ms linear 1442ms forwards;}.UyqQxZnx_19{stroke-dasharray:358 360;stroke-dashoffset:359;animation:UyqQxZnx_draw 30ms linear 1498ms forwards;}.UyqQxZnx_20{stroke-dasharray:890 892;stroke-dashoffset:891;animation:UyqQxZnx_draw 75ms linear 1529ms forwards;}.UyqQxZnx_21{stroke-dasharray:722 724;stroke-dashoffset:723;animation:UyqQxZnx_draw 61ms linear 1605ms forwards;}.UyqQxZnx_22{stroke-dasharray:625 627;stroke-dashoffset:626;animation:UyqQxZnx_draw 53ms linear 1667ms forwards;}.UyqQxZnx_23{stroke-dasharray:996 998;stroke-dashoffset:997;animation:UyqQxZnx_draw 84ms linear 1720ms forwards;}.UyqQxZnx_24{stroke-dasharray:277 279;stroke-dashoffset:278;animation:UyqQxZnx_draw 23ms linear 1805ms forwards;}.UyqQxZnx_25{stroke-dasharray:139 141;stroke-dashoffset:140;animation:UyqQxZnx_draw 11ms linear 1829ms forwards;}.UyqQxZnx_26{stroke-dasharray:142 144;stroke-dashoffset:143;animation:UyqQxZnx_draw 12ms linear 1841ms forwards;}.UyqQxZnx_27{stroke-dasharray:319 321;stroke-dashoffset:320;animation:UyqQxZnx_draw 27ms linear 1853ms forwards;}.UyqQxZnx_28{stroke-dasharray:162 164;stroke-dashoffset:163;animation:UyqQxZnx_draw 13ms linear 1880ms forwards;}.UyqQxZnx_29{stroke-dasharray:569 571;stroke-dashoffset:570;animation:UyqQxZnx_draw 48ms linear 1894ms forwards;}.UyqQxZnx_30{stroke-dasharray:939 941;stroke-dashoffset:940;animation:UyqQxZnx_draw 80ms linear 1942ms forwards;}.UyqQxZnx_31{stroke-dasharray:411 413;stroke-dashoffset:412;animation:UyqQxZnx_draw 35ms linear 2023ms forwards;}.UyqQxZnx_32{stroke-dasharray:114 116;stroke-dashoffset:115;animation:UyqQxZnx_draw 9ms linear 2058ms forwards;}.UyqQxZnx_33{stroke-dasharray:185 187;stroke-dashoffset:186;animation:UyqQxZnx_draw 15ms linear 2068ms forwards;}.UyqQxZnx_34{stroke-dasharray:322 324;stroke-dashoffset:323;animation:UyqQxZnx_draw 27ms linear 2083ms forwards;}.UyqQxZnx_35{stroke-dasharray:303 305;stroke-dashoffset:304;animation:UyqQxZnx_draw 25ms linear 2111ms forwards;}.UyqQxZnx_36{stroke-dasharray:515 517;stroke-dashoffset:516;animation:UyqQxZnx_draw 43ms linear 2137ms forwards;}.UyqQxZnx_37{stroke-dasharray:131 133;stroke-dashoffset:132;animation:UyqQxZnx_draw 11ms linear 2181ms forwards;}.UyqQxZnx_38{stroke-dasharray:1930 1932;stroke-dashoffset:1931;animation:UyqQxZnx_draw 164ms linear 2192ms forwards;}.UyqQxZnx_39{stroke-dasharray:1522 1524;stroke-dashoffset:1523;animation:UyqQxZnx_draw 129ms linear 2357ms forwards;}.UyqQxZnx_40{stroke-dasharray:327 329;stroke-dashoffset:328;animation:UyqQxZnx_draw 27ms linear 2487ms forwards;}.UyqQxZnx_41{stroke-dasharray:283 285;stroke-dashoffset:284;animation:UyqQxZnx_draw 24ms linear 2515ms forwards;}.UyqQxZnx_42{stroke-dasharray:26 28;stroke-dashoffset:27;animation:UyqQxZnx_draw 2ms linear 2539ms forwards;}.UyqQxZnx_43{stroke-dasharray:27 29;stroke-dashoffset:28;animation:UyqQxZnx_draw 2ms linear 2541ms forwards;}.UyqQxZnx_44{stroke-dasharray:29 31;stroke-dashoffset:30;animation:UyqQxZnx_draw 2ms linear 2543ms forwards;}.UyqQxZnx_45{stroke-dasharray:23 25;stroke-dashoffset:24;animation:UyqQxZnx_draw 2ms linear 2546ms forwards;}.UyqQxZnx_46{stroke-dasharray:86 88;stroke-dashoffset:87;animation:UyqQxZnx_draw 7ms linear 2548ms forwards;}.UyqQxZnx_47{stroke-dasharray:86 88;stroke-dashoffset:87;animation:UyqQxZnx_draw 7ms linear 2555ms forwards;}.UyqQxZnx_48{stroke-dasharray:530 532;stroke-dashoffset:531;animation:UyqQxZnx_draw 45ms linear 2563ms forwards;}.UyqQxZnx_49{stroke-dasharray:385 387;stroke-dashoffset:386;animation:UyqQxZnx_draw 32ms linear 2608ms forwards;}.UyqQxZnx_50{stroke-dasharray:176 178;stroke-dashoffset:177;animation:UyqQxZnx_draw 15ms linear 2641ms forwards;}.UyqQxZnx_51{stroke-dasharray:127 129;stroke-dashoffset:128;animation:UyqQxZnx_draw 10ms linear 2656ms forwards;}.UyqQxZnx_52{stroke-dasharray:82 84;stroke-dashoffset:83;animation:UyqQxZnx_draw 7ms linear 2667ms forwards;}.UyqQxZnx_53{stroke-dasharray:111 113;stroke-dashoffset:112;animation:UyqQxZnx_draw 9ms linear 2674ms forwards;}.UyqQxZnx_54{stroke-dasharray:71 73;stroke-dashoffset:72;animation:UyqQxZnx_draw 6ms linear 2684ms forwards;}.UyqQxZnx_55{stroke-dasharray:285 287;stroke-dashoffset:286;animation:UyqQxZnx_draw 24ms linear 2690ms forwards;}.UyqQxZnx_56{stroke-dasharray:248 250;stroke-dashoffset:249;animation:UyqQxZnx_draw 21ms linear 2714ms forwards;}.UyqQxZnx_57{stroke-dasharray:294 296;stroke-dashoffset:295;animation:UyqQxZnx_draw 25ms linear 2735ms forwards;}.UyqQxZnx_58{stroke-dasharray:258 260;stroke-dashoffset:259;animation:UyqQxZnx_draw 22ms linear 2761ms forwards;}.UyqQxZnx_59{stroke-dasharray:129 131;stroke-dashoffset:130;animation:UyqQxZnx_draw 11ms linear 2783ms forwards;}.UyqQxZnx_60{stroke-dasharray:115 117;stroke-dashoffset:116;animation:UyqQxZnx_draw 9ms linear 2794ms forwards;}.UyqQxZnx_61{stroke-dasharray:115 117;stroke-dashoffset:116;animation:UyqQxZnx_draw 9ms linear 2804ms forwards;}.UyqQxZnx_62{stroke-dasharray:1291 1293;stroke-dashoffset:1292;animation:UyqQxZnx_draw 110ms linear 2813ms forwards;}.UyqQxZnx_63{stroke-dasharray:889 891;stroke-dashoffset:890;animation:UyqQxZnx_draw 75ms linear 2924ms forwards;}@keyframes UyqQxZnx_draw{100%{stroke-dashoffset:0;}}@keyframes UyqQxZnx_fade{0%{stroke-opacity:1;}94.44444444444444%{stroke-opacity:1;}100%{stroke-opacity:0;}}</style></svg>