<svg xmlns="http://www.w3.org/2000/svg" viewBox="0 0 2854.96 2415.14" style=""><defs><style>.cls-1,.cls-2{fill:none;stroke-miterlimit:10;stroke-width:7px;}.cls-1{stroke:#000;}.cls-2{stroke:#ae2025;}</style></defs><g id="Layer_2" data-name="Layer 2"><g id="Emily_LD" data-name="Emily LD"><path class="cls-1 VEaIRFWU_0" d="M2789.66,545.81c-8.41,16.5-60,86.78-65.47,94.29-12.14,16.61-15.86,25.23-53.52,34.11-33.85,8-138.6,38-371.92,32-16.43-.42-41.26-2.45-60.44-18.52-24.59-20.59-85.31-80.61-96.8-93.79a89.12,89.12,0,0,1-21.4-55.66c-.34-17.41,7.26-34,13.16-44,18.81-31.68,36.08-50.79,36.08-50.79s14.86-21,45.71-26.48c121.78-21.79,322.34-40.07,491.45-19.93,18.63,2.21,26.73,2.3,46.2,25.1,13.75,16.1,43.5,52.65,44.9,79.92C2798.33,516.34,2794.13,537,2789.66,545.81Z"></path><path class="cls-1 VEaIRFWU_1" d="M2769.65,471.67c-6.47-11.92-25.72-37.72-29.8-42.13-5.08-5.48-9.93-14.47-28.54-16.74-27-3.29-39.26-5.25-52.74-2-13.73,3.29-14.45,7.23-14.45,7.23s-221.8-22.8-374.35,9.92c-2.06-3-1.71-7-15.34-4.73-21.22,3.55-33.73,5.39-46.6,8.5s-20.81,8.07-30.5,19.65c-9.95,11.9-27,36.4-29.9,40.91-6.78,10.46-16.21,29.69-16.21,45.64,0,14.26,5.45,32.06,18.45,48.53,12.63,16,90.41,88.83,94.93,91.82s13.06,9.7,27.27,9.15c14.86-.57,16.93-3.25,16.93-7.1,22.07,0,201.17,6.85,354.1-28.91,12.94,3.42,33.93,8.22,49.15-5.86s74.18-97,74.18-97,12.91-17.11,12.91-45.68C2779.14,486.67,2771.88,475.78,2769.65,471.67Z"></path><path class="cls-1 VEaIRFWU_2" d="M2269.77,427.93L2288.8,680.3"></path><path class="cls-1 VEaIRFWU_3" d="M2644.12,416.14L2646.52,650.09"></path><path class="cls-1 VEaIRFWU_4" d="M2045.07,814.8c.83-19.46,1.45-33.6,1.67-38,1-19.78,7.16-19.79,7.16-19.79s135.79,18,143.15,19.5,33.22,5.58,65.5,4.94c20.85-.41,30.55-1.62,30.55-1.62"></path><path class="cls-1 VEaIRFWU_5" d="M2235.31,1059c-28.18,15.39-95.45,25.87-126,25.24-10.06-.21-36.81-11-54.53-20.13a48.46,48.46,0,0,1-7-5.11"></path><path class="cls-1 VEaIRFWU_6" d="M2094.26,1036.1l-1.12,18.64s-2.12,29.31,17.71,29.49"></path><path class="cls-1 VEaIRFWU_7" d="M2107.66,813.7L2107.6,814.8"></path><path class="cls-1 VEaIRFWU_8" d="M2110.63,764.37L2107.66,813.7"></path><path class="cls-1 VEaIRFWU_9" d="M2664.13,317.79s-286.93-16.22-480.61,26.13c-7.38,1.62-31.95,6.62-49.81,26-22.39,24.29-63.08,80.14-72.27,95.74-7.81,13.24-20.36,35.84-18.33,75.66s22.69,74.85,34.31,91.91c11.84,17.4,100.07,101,123,118.69,5.63,4.34,26.3,30.5,92.68,28"></path><path class="cls-1 VEaIRFWU_10" d="M2278.44,859.41c8.73-54.67,14.66-79.54,14.66-79.54s214.37-7.51,300-23.74c75.52-12,92.95-17.12,102.42-20.29,7.52-2.52,21.92-6,33.2-18.68,43.29-48.61,60.74-73.2,66.19-81.5,11.1-16.9,37.75-59,46.88-85.12,6.14-17.58,9.7-24.83,9.7-51.15,0-19.91-2.78-30.41-9.64-46.67-13.19-31.24-41.68-75-64.16-97.72-21.5-21.74-36.86-22.28-69.92-29.42-172.6-37.3-469.1-9-545.56,10.69-42.61,11-518.19,146.82-518.19,146.82-10.4,3-42.34,11.4-59.67,30.5-27.1,29.87-51.4,74.14-9.82,116.6,39.85,40.68,67.43,59.28,72.52,62.89s15.57,14,37.73,17.53l2.47.41s418.4,51.93,465.44,59.05"></path><path class="cls-1 VEaIRFWU_11" d="M2228.52,1099.94c1.82-14,3.78-27.46,5.88-40.13,2.14-1.27,4.06-2.46,5.79-3.61"></path><path class="cls-1 VEaIRFWU_12" d="M1892.91,1815.54c2.55,11,5.91,22.26,10.27,31.49,13.19,27.89,53.63,105.85,117.17,141,63.08,34.89,115.58,43.68,156.23-4.69,27.88-33.18,32.46-92.7,31.45-119.08-.44-11.38-3.24-116.65-3-252.55"></path><path class="cls-1 VEaIRFWU_13" d="M1827.19,728.16c4.79,1,19.47,10,20.71,20.21.59,4.86,1.94,58.74,4.07,141.2"></path><path class="cls-1 VEaIRFWU_14" d="M1625.24,489s-61.46,42-53.86,97.51c4.19,22.83,2.88,32,68.43,86.84,46.35,38.75,45.78,37.45,45.78,37.45"></path><path class="cls-1 VEaIRFWU_15" d="M2851.46,499.39L2779.14,502.84"></path><path class="cls-1 VEaIRFWU_16" d="M2131.22,537.9l-86.47,3.51s-407.08,38.19-474,49.23"></path><path class="cls-2 VEaIRFWU_17" d="M1437,1908.78C1447.25,1939,1443,1983,1443,1983c-1.08,14-17.19,123.75-95,127.62-56.29-23.2-188.21-89.37-224.3-245.78-32-138.64-26.15-254.63,16.26-298.67a62.85,62.85,0,0,1,18.11-13.28s27.07-4.73,42.11-2.58c21.06-11.61,117.31-73,166.72-88.09,37-17.19,136.37-71,179-157.27,0,0,48.7-134.49,56.43-153.83s30.08-127.18,30.08-127.18,16.33-62.74,109.14-89.38c17.19-4.3,22.35-8.76,39.53-16.84s203.23-85.45,257.59-101.76c20-5.15,46.63-6.89,86.17,0s113.43,28,130.62,33.52,47.27,24.92,60.16,39.53,25.78,60.16,20.62,79.07-12.89,52.42-24.06,63.59c0,0-25.21,34.66-40.68,34.09s-25.1-2.49-30.54-9.36l-.55-.61s15.42-11.5,13.35-37.63c-.66-8.38-98.85,1.69-116.25-5.4-18.69,8.38-101.85,54.25-129.55,59.3h0s-72.06,18.8-97.58,16.43c0,0,67.93,1.6,97.58,2.26h0c12.25.65,194.6,2.58,228.79,10.31s76.72,53.5,67,101.84-22.56,74.77-38,89.59c13.54,18.69,37.39,94.75,4.52,125s-52.21,35.45-54.79,38c16.76,9.67,45.12,35.45,40.61,72.19-1.29,28.36-18.27,55.21-46.2,79.7s-39.63,20.63-56.12,32.66-61.2,33.88-74.93,34.38c-17.19,9-55.86,46.83-70.47,67.46s-36.45,37.33-47.51,41.62c-22.35,11.6-64,32.5-79.25,38.73-17.6,7.19-74.7,8.92-92.38,6.44-23.21-1.28-89.38-8.59-104.85-19.33-19.76,1.29-90.23,16.33-103.12,21.05s-25.78,3.44-43,12.89c-8.47,4.66-65.56,41.94-101.45,65.47-16.14,10.58-28,18.38-29.21,19.18-13.72,9-170.55,86.37-180.87,88.52,17.62,15.47,86.8,77.34,107,76.48s111.53-58.93,92.2-177.09"></path><path class="cls-2 VEaIRFWU_18" d="M501.58,2102.42c-8.6-36.1-24.92-27.5-9.46-134.07s56.72-140.08,92.82-213.12c13.91-28.15,26.8-46,39.21-57,19.79-17.57,38.35-17.85,57.9-15.21,99.69,21.48,285.31-30.08,339.45-52.42,0,0,96.12-43,118.53-64.49"></path><path class="cls-2 VEaIRFWU_19" d="M1348.07,2110.58s-99.41,19-149,38c0,0-469.8,219-504.6,215.13-5.31-.59-12.39-1.06-20.62-1.45-45.73-2.18-97.39,1.13-108.31-3.24"></path><path class="cls-2 VEaIRFWU_20" d="M191.77,2243.78c10.48,13.1,38,33.89,72.34,55.91,67.12,43,160.48,90.65,204.81,94.92,0,0,73.39-8.29,85-14.31"></path><path class="cls-2 VEaIRFWU_21" d="M702.24,2363.72s-35.23,34.75-55.43,41.2-21.48,11.17-45.54,0-68.54-36.38-85.08-45.55c-5.91-3.27-14.18-11.6-15.47-15.47s-70.47-115.58-74.34-132.77-38.67-168.44-30.94-245.78"></path><path class="cls-2 VEaIRFWU_22" d="M655,1682.73s-34.8-16-48.55-15.16c-3.44-9.45,0-39.53-37.81-46.41s-74.68-14.61-82.89-16.32c-4.77-22.35-18.52-46.41-15.94-55s-14.61-68.75-45.55-76.49c-10.47-20.14-29.25-50.86-41.47-56"></path><path class="cls-2 VEaIRFWU_23" d="M424.23,1473.35s-103.7-49.48-214.56-39.35"></path><path class="cls-2 VEaIRFWU_24" d="M2265.88,1292.45s-143,11.6-207.48,12.89c-28.42,0-81.27-6.44-117.36-20.62"></path><path class="cls-2 VEaIRFWU_25" d="M798.29,406.46C799.51,233.73,688.06,131.87,597,71.7,375.36-74.67,262.67,60.1,262.67,60.1S207.35,29,158.26,62.68C43.53,141.31,38.37,335.32,63.83,518.92"></path><path class="cls-2 VEaIRFWU_26" d="M129.39,538.14c5.93-.85,86.87-26.22,98.48-28.75s18-2.63,26.42,0S270.87,529.13,276,540.9c13.45,30.82,30.5,54.81,42.1,66.41s33.52,19.34,45.76,21.27c39.32,7.74,111.51-9.67,126.33-17.4s31.37-28.79,38-43.19,16.11-50.91,17.4-58.6,7.09-20.67,11.6-24.54,9.67-3.87,22.56-3.87,15.47,20.63,20,28.41,17.4,33.47,30.94,50.23,33.53,29.6,50.93,32.18c56.84,6.57,87.5-3.78,109.2-19.25,19.9-14.18,32.71-49,35.16-63.16,1.68-9.67,4.52-53.54,5.8-59.35s9.67-10.31,10.32-13.53,0-20.63-3.23-25.14c0,0-29.24-4-39.38-4.8-30.13-2.37-119.17-6.8-205.54,44.12-12.25,7.09-38,11-58,7.09s-121.44-34.32-242.8,1.53c-27.9,8.14-52.39,16.52-52.39,16.52l-2.68.56-157,33"></path><path class="cls-2 VEaIRFWU_27" d="M769.13,405.4c-1.74-13.52-7.93-26.84-7.93-26.84s-4.88-10.59-14.75-27.19c-27-49.06-74-79.48-74-79.48-149.38-97.8-342,21.24-382.64-30.34-5.17.72-74.69,30.41-89.17,85.33-14.21,53.88-1.12,71-12.08,99.32s-13.54,52-13.22,63.39"></path><path class="cls-2 VEaIRFWU_28" d="M802,543.43c-2.32-36.77-19.22-63.33-21.69-67.53-2.86-4.87-4.29-16.62-6.59-33.8A88.32,88.32,0,0,0,772.15,421"></path><path class="cls-2 VEaIRFWU_29" d="M800.85,564.55c-3.17,31.16-8.41,76.45-7.66,90.1.86,15.47,1.44,136.64-25.78,183.91-5.15,9.74-21.08,48.43-22.06,65.88-.78,14.16-11.78,33-28.83,46.07-11.25,8.65-25.71,14.45-41.19,18.1,0,0-60.24,13.35-109.85,3.36-46.3-9.33-62.82-33-110.53-50.81-43-16.08-90.19-67.1-90.19-67.1"></path><path class="cls-2 VEaIRFWU_30" d="M239.45,476.1c-1.16,9.61,1,24.22,2.38,31.39"></path><path class="cls-2 VEaIRFWU_31" d="M772.41,422.39c7.65.48,15.62,1.16,23.93,2.09,14.18,2.58,24.93,26.64,21.49,55.43S808,561.12,768.41,574c-16.75,6-81.21,21.91-114.29-5.59-8.6-6.44-41.68-41.56-45.12-92.32-.68-10.06,35.87-61.62,163.41-53.71"></path><path class="cls-2 VEaIRFWU_32" d="M529.08,517.91c1.21-13.14,6.44-46.17-25.78-56s-127.19-17.19-198.09,10.31c-16.76,6.88-26.64,19.77-21.49,40.82s18.48,60.59,33.09,76.92,33.09,28.36,58,30.08,70.47-4.3,94.53-11.6,37.38-26.65,42.54-35.67S527.83,531.43,529.08,517.91Z"></path><path class="cls-2 VEaIRFWU_33" d="M28.51,2053.48c52.35,74,88.43,114.64,100.1,127.14,0,0-10.32,19.34,0,29.65s65.88,69.75,74.76,78.63,36.06,34.51,65.73,14"></path><path class="cls-2 VEaIRFWU_34" d="M181.29,523s11.13,27.64,9.84,45.69c-1.29,9-3.87,20.53-12.89,15.42s-28.94-11.7-42.19-37.41c-7.24-14.06-37.52-38.1-55-37.24s-20.62,14-23.77,31.8,7.3,54.71,9.45,62.88,25.35,46.41,30.08,52c0,0,30.35,48.23,55.43,65.74,10.31,9.89,22.49,12.39,33.1,15.88,16.66,5.47,36.94-12.87,36.94-12.87L270,786.71l15,39.53c22.67,74.34-12,116.87-27.5,128.91s-144.37,91.09-153,94.53-10.31,5.15-33.3,22.34c-11.14,8.33-41.66,19.57-70.15,28.93"></path><path class="cls-2 VEaIRFWU_35" d="M720.72,463.58s-52.71-39.24-93.39,2.58A80.16,80.16,0,0,1,615,476.47s-6,3.72-2.58,4,33.23-2.86,45.83-1.43,34.38.57,41.25-2.58S720.72,463.58,720.72,463.58Z"></path><path class="cls-2 VEaIRFWU_36" d="M690.75,479.05c10.31-10.31,3.11-29.11,3.11-29.11s16.21-.4,23.68-17.58"></path><path class="cls-2 VEaIRFWU_37" d="M654.05,449.4c-4.64,4.27-8.67,17,1.15,29.4"></path><path class="cls-2 VEaIRFWU_38" d="M661.74,463.34A11.23,11.96 0,1,1 684.2,463.34A11.23,11.96 0,1,1 661.74,463.34"></path><path class="cls-2 VEaIRFWU_39" d="M718.76,462.23s15,7.63,30-1.8"></path><path class="cls-2 VEaIRFWU_40" d="M712.13,456.81s22.34,5.05,30.07-8.13"></path><path class="cls-2 VEaIRFWU_41" d="M702.62,453.67s17,.17,29.84-12.72"></path><path class="cls-2 VEaIRFWU_42" d="M679,447.31s12.14-7.22,11.75-17.25"></path><path class="cls-2 VEaIRFWU_43" d="M661.72,447.64s7-6.12,5.52-15.28"></path><path class="cls-2 VEaIRFWU_44" d="M485.68,491.79s9,1.87,0,5.74-15.32-1.29-24,0-25.64,10.22-43.26,11.86-44.47,2.84-59.08,0c7.73-13.58,25.78-35.21,52.85-40.63,14.61-3.28,31.94,2.29,44.83,8.57,7.92,4.62,11.18,11.18,15.19,12.25S485.68,491.79,485.68,491.79Z"></path><path class="cls-2 VEaIRFWU_45" d="M436.65,505.54c15.15-15,.13-35.6.13-35.6"></path><path class="cls-2 VEaIRFWU_46" d="M401.89,510.59c-13.75-11.35-11.39-31.11-3.44-37.46,0,0-14.71-5.84-20-14.06"></path><path class="cls-2 VEaIRFWU_47" d="M407.21,489.83A11.23,11.96 0,1,1 429.67,489.83A11.23,11.96 0,1,1 407.21,489.83"></path><path class="cls-2 VEaIRFWU_48" d="M359.35,509.39s-7.85,1.18-19.06-10.38"></path><path class="cls-2 VEaIRFWU_49" d="M364.64,501.25s-12.59-2.24-18-11"></path><path class="cls-2 VEaIRFWU_50" d="M374.45,489.83c-.37,1-12.95.65-20-9.59"></path><path class="cls-2 VEaIRFWU_51" d="M384,481.58s-14.43-4.26-20.59-12.63"></path><path class="cls-2 VEaIRFWU_52" d="M416.91,467.88A22.07,22.07,0,0,1,404.18,453"></path><path class="cls-2 VEaIRFWU_53" d="M612.4,571.47c-13.56-27.5-30-63.79-36.2-89.28"></path><path class="cls-2 VEaIRFWU_54" d="M508.91,644.13c-3.81,16.71,26.47,19.2,35,15.87,3.23-1.25,4.26-8.85,21.23-10.94,20.11-2.48,32.23,8.82,37.81,12.68s11.61-1.79,26.65-4.8c5.15-4.3,15.46-18.05,16.75-24.06,1.21-5.61-6.28-13-12.81-20.3"></path><path class="cls-2 VEaIRFWU_55" d="M656.8,610.85c14.49,12.46-.42,30.35-12.54,27"></path><path class="cls-2 VEaIRFWU_56" d="M687.6,965.34s-1.9,12.94-5,25.3-6.93,26.92-9.89,35.62c-4.3,12.65-13.43,47.78-19.29,74.69"></path><path class="cls-2 VEaIRFWU_57" d="M1224.59,1535.9c-5.52-13.72-8.65-48.8-15.1-85.54s-32.87-98-42.54-115.37-17.4-38.67-26.92-70.9-39.46-78.63-67.18-121.17-73.48-57.36-90.88-63.81-123.75-27.71-145-34.8-94.1-23.85-105.06-25.14-18.69-2.58-23.47-8.38c0,0-22.44-12.08-26.38-16.36"></path><path class="cls-2 VEaIRFWU_58" d="M783.37,790.43s-3.31,197,11,244.51"></path><path class="cls-2 VEaIRFWU_59" d="M798.3,456.45s-2.87,40.05-4.66,46.61"></path><path class="cls-2 VEaIRFWU_60" d="M816.24,450.26s-35.73,12.38-39.43,13.43"></path><path class="cls-2 VEaIRFWU_61" d="M76.85,624.24s23.6,159,22.53,245.12-18.19,195.21-18.19,195.21"></path><path class="cls-2 VEaIRFWU_62" d="M710,713.66S656,725.92,651.26,726.27s-20.22,1.91-26.17,7.62-22.53,9.33-33.15,7.14c-13.85-2.86-45,8.74-50.61,11.18s-14.07,5.3-19.34,5.71c-9.69.77-35.75.87-46.22,6.73,0,0,14.1,17.07,32.81,22.07s12.56,3.83,21.55,5.23c9.17,1.43,17.38,5.36,26.43,9.28,12.74,5.54,70.41,6.69,92.07-3.57,18.09-8.57,22.09-18.62,24.7-23.38s4-12.49,10.53-21.59S705.94,724.17,710,713.66Z"></path><path class="cls-2 VEaIRFWU_63" d="M707,715.8s-21.78,19-42.18,31.12c-7.4,4.38-16.8,7.29-20.82,9.22s-19.87,9.75-30.58,10.41A269,269,0,0,0,582.2,771c-8.2,1.7-36.17,3.53-45.93,2.57s-31.17,0-59.67-7.88"></path><path class="cls-2 VEaIRFWU_64" d="M479.55,405.63c-7.91-9.62-62.64-33-131.11.59-10.5,5.15-68.63,35-68.63,44.58s62.5-25.63,79.54-32.54c18.26-7.41,43.88-9.66,62.28-7.76s28,5.86,39.5,16C471.43,435.62,495.4,424.91,479.55,405.63Z"></path><path class="cls-2 VEaIRFWU_65" d="M745.61,405.3C735.39,399,667.45,381.18,643,401.47c-11.46,9.51-9.82,13.85-16,16.2-7.73,2.93-29.25.68-18-20,20.08-36.82,130.51-20.53,145,6.43"></path><path class="cls-2 VEaIRFWU_66" d="M2215.61,1455.52s-61.7,17.29-92.93,23.36-73,18.74-131.94-3"></path><path class="cls-2 VEaIRFWU_67" d="M128.61,2180.62s28.17-106.07,33.17-158.66,13.45-91.38,17.37-113.51,4.69-54,23.56-79.59,56.75-89.24,63.89-102.45,14.88-16,40.28-72.78"></path><path class="cls-2 VEaIRFWU_68" d="M1200.25,1550.27s-52.79,32.13-60.22,49.07-26.85,107-11.42,206.32c18.67,120.23,61.21,185.25,98.28,210.82"></path><path class="cls-2 VEaIRFWU_69" d="M708.42,1010.79c-7.07,186.29-440.82,155-493.07-31.58"></path></g></g><style data-made-with="vivus-instant">.VEaIRFWU_0{stroke-dasharray:1664 1666;stroke-dashoffset:1665;animation:VEaIRFWU_draw 146ms linear 0ms forwards;}.VEaIRFWU_1{stroke-dasharray:1580 1582;stroke-dashoffset:1581;animation:VEaIRFWU_draw 138ms linear 146ms forwards;}.VEaIRFWU_2{stroke-dasharray:254 256;stroke-dashoffset:255;animation:VEaIRFWU_draw 22ms linear 284ms forwards;}.VEaIRFWU_3{stroke-dasharray:234 236;stroke-dashoffset:235;animation:VEaIRFWU_draw 20ms linear 307ms forwards;}.VEaIRFWU_4{stroke-dasharray:302 304;stroke-dashoffset:303;animation:VEaIRFWU_draw 26ms linear 327ms forwards;}.VEaIRFWU_5{stroke-dasharray:197 199;stroke-dashoffset:198;animation:VEaIRFWU_draw 17ms linear 354ms forwards;}.VEaIRFWU_6{stroke-dasharray:58 60;stroke-dashoffset:59;animation:VEaIRFWU_draw 5ms linear 371ms forwards;}.VEaIRFWU_7{stroke-dasharray:2 4;stroke-dashoffset:3;animation:VEaIRFWU_draw 0ms linear 377ms forwards;}.VEaIRFWU_8{stroke-dasharray:50 52;stroke-dashoffset:51;animation:VEaIRFWU_draw 4ms linear 377ms forwards;}.VEaIRFWU_9{stroke-dasharray:1109 1111;stroke-dashoffset:1110;animation:VEaIRFWU_draw 97ms linear 381ms forwards;}.VEaIRFWU_10{stroke-dasharray:2920 2922;stroke-dashoffset:2921;animation:VEaIRFWU_draw 256ms linear 479ms forwards;}.VEaIRFWU_11{stroke-dasharray:48 50;stroke-dashoffset:49;animation:VEaIRFWU_draw 4ms linear 735ms forwards;}.VEaIRFWU_12{stroke-dasharray:770 772;stroke-dashoffset:771;animation:VEaIRFWU_draw 67ms linear 740ms forwards;}.VEaIRFWU_13{stroke-dasharray:172 174;stroke-dashoffset:173;animation:VEaIRFWU_draw 15ms linear 807ms forwards;}.VEaIRFWU_14{stroke-dasharray:290 292;stroke-dashoffset:291;animation:VEaIRFWU_draw 25ms linear 822ms forwards;}.VEaIRFWU_15{stroke-dasharray:73 75;stroke-dashoffset:74;animation:VEaIRFWU_draw 6ms linear 848ms forwards;}.VEaIRFWU_16{stroke-dasharray:564 566;stroke-dashoffset:565;animation:VEaIRFWU_draw 49ms linear 854ms forwards;}.VEaIRFWU_17{stroke-dasharray:5492 5494;stroke-dashoffset:5493;animation:VEaIRFWU_draw 482ms linear 904ms forwards;}.VEaIRFWU_18{stroke-dasharray:986 988;stroke-dashoffset:987;animation:VEaIRFWU_draw 86ms linear 1386ms forwards;}.VEaIRFWU_19{stroke-dasharray:833 835;stroke-dashoffset:834;animation:VEaIRFWU_draw 73ms linear 1473ms forwards;}.VEaIRFWU_20{stroke-dasharray:406 408;stroke-dashoffset:407;animation:VEaIRFWU_draw 35ms linear 1546ms forwards;}.VEaIRFWU_21{stroke-dasharray:637 639;stroke-dashoffset:638;animation:VEaIRFWU_draw 56ms linear 1582ms forwards;}.VEaIRFWU_22{stroke-dasharray:423 425;stroke-dashoffset:424;animation:VEaIRFWU_draw 37ms linear 1638ms forwards;}.VEaIRFWU_23{stroke-dasharray:221 223;stroke-dashoffset:222;animation:VEaIRFWU_draw 19ms linear 1675ms forwards;}.VEaIRFWU_24{stroke-dasharray:328 330;stroke-dashoffset:329;animation:VEaIRFWU_draw 28ms linear 1695ms forwards;}.VEaIRFWU_25{stroke-dasharray:1371 1373;stroke-dashoffset:1372;animation:VEaIRFWU_draw 120ms linear 1724ms forwards;}.VEaIRFWU_26{stroke-dasharray:1822 1824;stroke-dashoffset:1823;animation:VEaIRFWU_draw 160ms linear 1844ms forwards;}.VEaIRFWU_27{stroke-dasharray:858 860;stroke-dashoffset:859;animation:VEaIRFWU_draw 75ms linear 2004ms forwards;}.VEaIRFWU_28{stroke-dasharray:128 130;stroke-dashoffset:129;animation:VEaIRFWU_draw 11ms linear 2079ms forwards;}.VEaIRFWU_29{stroke-dasharray:795 797;stroke-dashoffset:796;animation:VEaIRFWU_draw 69ms linear 2091ms forwards;}.VEaIRFWU_30{stroke-dasharray:32 34;stroke-dashoffset:33;animation:VEaIRFWU_draw 2ms linear 2161ms forwards;}.VEaIRFWU_31{stroke-dasharray:607 609;stroke-dashoffset:608;animation:VEaIRFWU_draw 53ms linear 2164ms forwards;}.VEaIRFWU_32{stroke-dasharray:683 685;stroke-dashoffset:684;animation:VEaIRFWU_draw 60ms linear 2217ms forwards;}.VEaIRFWU_33{stroke-dasharray:376 378;stroke-dashoffset:377;animation:VEaIRFWU_draw 33ms linear 2277ms forwards;}.VEaIRFWU_34{stroke-dasharray:1087 1089;stroke-dashoffset:1088;animation:VEaIRFWU_draw 95ms linear 2310ms forwards;}.VEaIRFWU_35{stroke-dasharray:238 240;stroke-dashoffset:239;animation:VEaIRFWU_draw 20ms linear 2406ms forwards;}.VEaIRFWU_36{stroke-dasharray:62 64;stroke-dashoffset:63;animation:VEaIRFWU_draw 5ms linear 2427ms forwards;}.VEaIRFWU_37{stroke-dasharray:33 35;stroke-dashoffset:34;animation:VEaIRFWU_draw 2ms linear 2432ms forwards;}.VEaIRFWU_38{stroke-dasharray:73 75;stroke-dashoffset:74;animation:VEaIRFWU_draw 6ms linear 2435ms forwards;}.VEaIRFWU_39{stroke-dasharray:32 34;stroke-dashoffset:33;animation:VEaIRFWU_draw 2ms linear 2442ms forwards;}.VEaIRFWU_40{stroke-dasharray:34 36;stroke-dashoffset:35;animation:VEaIRFWU_draw 3ms linear 2444ms forwards;}.VEaIRFWU_41{stroke-dasharray:34 36;stroke-dashoffset:35;animation:VEaIRFWU_draw 3ms linear 2448ms forwards;}.VEaIRFWU_42{stroke-dasharray:22 24;stroke-dashoffset:23;animation:VEaIRFWU_draw 2ms linear 2451ms forwards;}.VEaIRFWU_43{stroke-dasharray:17 19;stroke-dashoffset:18;animation:VEaIRFWU_draw 1ms linear 2453ms forwards;}.VEaIRFWU_44{stroke-dasharray:288 290;stroke-dashoffset:289;animation:VEaIRFWU_draw 25ms linear 2454ms forwards;}.VEaIRFWU_45{stroke-dasharray:39 41;stroke-dashoffset:40;animation:VEaIRFWU_draw 3ms linear 2480ms forwards;}.VEaIRFWU_46{stroke-dasharray:67 69;stroke-dashoffset:68;animation:VEaIRFWU_draw 5ms linear 2483ms forwards;}.VEaIRFWU_47{stroke-dasharray:73 75;stroke-dashoffset:74;animation:VEaIRFWU_draw 6ms linear 2489ms forwards;}.VEaIRFWU_48{stroke-dasharray:23 25;stroke-dashoffset:24;animation:VEaIRFWU_draw 2ms linear 2496ms forwards;}.VEaIRFWU_49{stroke-dasharray:22 24;stroke-dashoffset:23;animation:VEaIRFWU_draw 2ms linear 2498ms forwards;}.VEaIRFWU_50{stroke-dasharray:24 26;stroke-dashoffset:25;animation:VEaIRFWU_draw 2ms linear 2500ms forwards;}.VEaIRFWU_51{stroke-dasharray:25 27;stroke-dashoffset:26;animation:VEaIRFWU_draw 2ms linear 2502ms forwards;}.VEaIRFWU_52{stroke-dasharray:21 23;stroke-dashoffset:22;animation:VEaIRFWU_draw 1ms linear 2504ms forwards;}.VEaIRFWU_53{stroke-dasharray:97 99;stroke-dashoffset:98;animation:VEaIRFWU_draw 8ms linear 2506ms forwards;}.VEaIRFWU_54{stroke-dasharray:193 195;stroke-dashoffset:194;animation:VEaIRFWU_draw 17ms linear 2515ms forwards;}.VEaIRFWU_55{stroke-dasharray:41 43;stroke-dashoffset:42;animation:VEaIRFWU_draw 3ms linear 2532ms forwards;}.VEaIRFWU_56{stroke-dasharray:140 142;stroke-dashoffset:141;animation:VEaIRFWU_draw 12ms linear 2535ms forwards;}.VEaIRFWU_57{stroke-dasharray:853 855;stroke-dashoffset:854;animation:VEaIRFWU_draw 74ms linear 2548ms forwards;}.VEaIRFWU_58{stroke-dasharray:246 248;stroke-dashoffset:247;animation:VEaIRFWU_draw 21ms linear 2623ms forwards;}.VEaIRFWU_59{stroke-dasharray:47 49;stroke-dashoffset:48;animation:VEaIRFWU_draw 4ms linear 2644ms forwards;}.VEaIRFWU_60{stroke-dasharray:42 44;stroke-dashoffset:43;animation:VEaIRFWU_draw 3ms linear 2649ms forwards;}.VEaIRFWU_61{stroke-dasharray:443 445;stroke-dashoffset:444;animation:VEaIRFWU_draw 38ms linear 2652ms forwards;}.VEaIRFWU_62{stroke-dasharray:532 534;stroke-dashoffset:533;animation:VEaIRFWU_draw 46ms linear 2691ms forwards;}.VEaIRFWU_63{stroke-dasharray:246 248;stroke-dashoffset:247;animation:VEaIRFWU_draw 21ms linear 2738ms forwards;}.VEaIRFWU_64{stroke-dasharray:460 462;stroke-dashoffset:461;animation:VEaIRFWU_draw 40ms linear 2760ms forwards;}.VEaIRFWU_65{stroke-dasharray:326 328;stroke-dashoffset:327;animation:VEaIRFWU_draw 28ms linear 2800ms forwards;}.VEaIRFWU_66{stroke-dasharray:231 233;stroke-dashoffset:232;animation:VEaIRFWU_draw 20ms linear 2829ms forwards;}.VEaIRFWU_67{stroke-dasharray:566 568;stroke-dashoffset:567;animation:VEaIRFWU_draw 49ms linear 2849ms forwards;}.VEaIRFWU_68{stroke-dasharray:525 527;stroke-dashoffset:526;animation:VEaIRFWU_draw 46ms linear 2899ms forwards;}.VEaIRFWU_69{stroke-dasharray:615 617;stroke-dashoffset:616;animation:VEaIRFWU_draw 54ms linear 2945ms forwards;}@keyframes VEaIRFWU_draw{100%{stroke-dashoffset:0;}}@keyframes VEaIRFWU_fade{0%{stroke-opacity:1;}94.44444444444444%{stroke-opacity:1;}100%{stroke-opacity:0;}}</style></svg>