<svg xmlns="http://www.w3.org/2000/svg" viewBox="0 0 5914 1369.8"><defs><style>.cls-1{fill:#ae2026;}</style></defs><g id="Layer_2" data-name="Layer 2"><g id="Layer_1-2" data-name="Layer 1"><path d="M943.09,961.81h363.63q-4.93,119.25-24.14,181.82a267,267,0,0,1-65.53,109.88q-69,70-185.27,93.13T634.64,1369.8q-220.75,0-330.62-18.73t-181.82-69q-69-49.27-95.59-140.43T0,861.3Q0,688.85,24.64,601.13t87.7-138.95q69-55.17,183.3-75.88t356.74-20.69q237.48,0,358.21,21.68t188.72,75.88q57.14,46.33,80.31,113.82t28.09,201.53H944.07q-8.87-81.79-72.43-112.84t-220.25-31q-158.67,0-221.73,29.56-39.42,19.72-56.17,67.51T356.74,873.12q0,91.65,17.74,135t63.07,63.07q67,29.57,218.77,29.56,157.65,0,216.31-28.58T943.09,961.81Z"/><path class="cls-1" d="M2087.21,365.61q243.39,0,364.13,19.21t188.72,68.5q71,51.24,96.57,134t25.62,262.13q0,133-7.39,199.56t-27.1,119.73q-51.26,134-207.93,170.49-130.08,30.52-431.63,30.55-267.07,0-382.36-19.22t-184.28-76.37q-66-54.2-88.2-141.91t-22.18-295.64q0-118.26,9.37-179.85t36-112.83q54.18-104.44,183.29-140.92T2087.21,365.61Zm3,269q-177.39,0-239.47,27.59-45.35,20.7-64,69t-18.73,142.9q0,93.63,15.77,134t60.11,61.1q68,31.55,245.38,31.53,203,0,259.67-42.37t56.67-193.15q0-94.61-17.74-138t-64.06-63.07Q2255.73,634.64,2090.17,634.64Z"/><path d="M4214.83,0V1345.16h-336V1220h-19.71q-37.46,65-82.77,91.65-98.57,58.14-339,58.15-193.17,0-297.61-22.67t-165.56-78.84q-59.13-53.2-81.3-140.92t-22.17-265.09q0-123.16,12.31-198.08t41.89-132.05Q2981,425.73,3122,391.23q103.47-25.62,319.29-25.62,188.22,0,269.52,31t132.55,121.7h14.78V0ZM3557.52,634.64q-210.9,0-270.51,40.4t-59.62,182.31q0,107.43,17.74,153.24t66,64.55q64.05,25.63,224.68,25.62,199,0,265.09-41.39,32.52-19.69,45.83-63.07t13.3-127.12q0-97.56-17.74-142.89t-63.07-64.06Q3714.21,634.66,3557.52,634.64Z"/><path d="M5278.14,1039.67h355.75q-14.78,155.71-94.6,223.69-69,60.14-195.12,83.28t-378.42,23.16q-207.94,0-319.29-20.21t-176.4-69.47q-69-52.23-94.6-139.44t-25.62-268.55q0-136,9.85-204.48T4397.14,544q57.13-114.32,206.94-148.81,128.1-29.57,398.13-29.56,238.48,0,336,16.75Q5511.7,411.92,5576.74,512t65,336.53q0,22.69-2,96.58H4706.57q0,72.95,9.37,104.46t37,52.23q53.22,39.42,240.45,39.42,119.23,0,178.86-9.37t81.31-31Q5271.24,1083,5278.14,1039.67Zm4.93-289.73q-2-56.18-7.39-77.36a86,86,0,0,0-21.19-37.94q-46.33-47.29-247.35-47.3-180.35,0-238.48,31.53t-62.09,131.07Z"/><path d="M5814.07,27.25q43,0,60.59,2.76t25.71,10.74a32.22,32.22,0,0,1,7.74,12q2.58,6.95,4.05,19.46a357,357,0,0,1,1.84,40q0,30.95-2.88,46.84t-10,23.26q-7.36,7.86-24.24,10.74t-55.31,2.89q-18.9,0-41.92-.62t-30.26-1.23q-12.53-1.22-19.77-4.05a35.09,35.09,0,0,1-12.89-8.83q-7.49-7.86-10-22.1T5704.2,111q0-40,5.52-56.83,6.63-19.89,30.33-23.45Q5761.77,27.38,5814.07,27.25Zm-13.38,13.5q-36.34,0-50.7,2t-21,8q-6,5.4-8.23,18t-2.21,41.19q0,30.81,1.78,43.52t6.94,18.11a24.23,24.23,0,0,0,10.62,6.5q6.32,2,19.7,2.83,5.4.36,52.91,1.47,43-1,51.32-1.47a106.55,106.55,0,0,0,15.83-2.09,23.73,23.73,0,0,0,11.85-6.69,25.92,25.92,0,0,0,6.69-12.22q3.44-15.09,3.44-50t-3.07-48.12a22.12,22.12,0,0,0-7.06-12,27.14,27.14,0,0,0-13.44-6.32,131.43,131.43,0,0,0-18.29-2Q5848.32,41.13,5800.69,40.75ZM5747,161.8V61.26h67.15q26.9.24,34.38,1.22,11.79,1.35,17.18,8.53t5.41,21.18q0,13.14-2.95,18.23T5856.3,118q8.47,2.58,10.74,7.61t2.28,21V161.8h-16.7V151q0-13.14-.61-17a10,10,0,0,0-3.32-6.2,13.2,13.2,0,0,0-7.79-3.07q-5-.48-26.71-.61h-50.45V161.8Zm16.7-51.81h50.45q20.39,0,26.09-.49a21.12,21.12,0,0,0,9.15-2.58q4.78-2.82,4.79-15,0-10.44-4.42-13.38-3-2-9.95-2.58t-25.66-.62h-50.45Z"/></g></g></svg>